# Blender 4.5.4 LTS
# www.blender.org
mtllib a_letter_texture.mtl
o Text
v 0.567000 0.120000 0.000000
v 0.476000 0.120000 -0.201000
v 0.186000 0.120000 -0.201000
v 0.100000 0.120000 0.000000
v 0.000000 0.120000 0.000000
v 0.293000 0.120000 -0.686000
v 0.362000 0.120000 -0.686000
v 0.667000 0.120000 0.000000
v 0.436000 0.120000 -0.289000
v 0.326000 0.120000 -0.536000
v 0.224000 0.120000 -0.289000
v 0.567000 -0.120000 0.000000
v 0.476000 -0.120000 -0.201000
v 0.186000 -0.120000 -0.201000
v 0.100000 -0.120000 0.000000
v 0.000000 -0.120000 0.000000
v 0.293000 -0.120000 -0.686000
v 0.362000 -0.120000 -0.686000
v 0.667000 -0.120000 0.000000
v 0.436000 -0.120000 -0.289000
v 0.326000 -0.120000 -0.536000
v 0.224000 -0.120000 -0.289000
v 0.567000 -0.120000 0.000000
v 0.563014 -0.119021 0.006180
v 0.559418 -0.116180 0.011756
v 0.556564 -0.111756 0.016180
v 0.554732 -0.106180 0.019021
v 0.554101 -0.100000 0.020000
v 0.554101 0.100000 0.020000
v 0.554732 0.106180 0.019021
v 0.556564 0.111756 0.016180
v 0.559418 0.116180 0.011756
v 0.563014 0.119021 0.006180
v 0.567000 0.120000 0.000000
v 0.476000 -0.120000 -0.201000
v 0.472014 -0.119021 -0.194820
v 0.468418 -0.116180 -0.189244
v 0.465564 -0.111756 -0.184820
v 0.463732 -0.106180 -0.181979
v 0.463101 -0.100000 -0.181000
v 0.463101 0.100000 -0.181000
v 0.463732 0.106180 -0.181979
v 0.465564 0.111756 -0.184820
v 0.468418 0.116180 -0.189244
v 0.472014 0.119021 -0.194820
v 0.476000 0.120000 -0.201000
v 0.186000 -0.120000 -0.201000
v 0.190078 -0.119021 -0.194820
v 0.193757 -0.116180 -0.189244
v 0.196676 -0.111756 -0.184820
v 0.198551 -0.106180 -0.181979
v 0.199197 -0.100000 -0.181000
v 0.199197 0.100000 -0.181000
v 0.198551 0.106180 -0.181979
v 0.196676 0.111756 -0.184820
v 0.193757 0.116180 -0.189244
v 0.190078 0.119021 -0.194820
v 0.186000 0.120000 -0.201000
v 0.100000 -0.120000 0.000000
v 0.104078 -0.119021 0.006180
v 0.107757 -0.116180 0.011756
v 0.110676 -0.111756 0.016180
v 0.112551 -0.106180 0.019021
v 0.113197 -0.100000 0.020000
v 0.113197 0.100000 0.020000
v 0.112551 0.106180 0.019021
v 0.110676 0.111756 0.016180
v 0.107757 0.116180 0.011756
v 0.104078 0.119021 0.006180
v 0.100000 0.120000 0.000000
v 0.000000 -0.120000 0.000000
v -0.009360 -0.119021 0.006180
v -0.017804 -0.116180 0.011756
v -0.024505 -0.111756 0.016180
v -0.028808 -0.106180 0.019021
v -0.030290 -0.100000 0.020000
v -0.030290 0.100000 0.020000
v -0.028808 0.106180 0.019021
v -0.024505 0.111756 0.016180
v -0.017804 0.116180 0.011756
v -0.009360 0.119021 0.006180
v 0.000000 0.120000 0.000000
v 0.293000 -0.120000 -0.686000
v 0.288919 -0.119021 -0.692180
v 0.285238 -0.116180 -0.697756
v 0.282316 -0.111756 -0.702180
v 0.280441 -0.106180 -0.705021
v 0.279794 -0.100000 -0.706000
v 0.279794 0.100000 -0.706000
v 0.280441 0.106180 -0.705021
v 0.282316 0.111756 -0.702180
v 0.285238 0.116180 -0.697756
v 0.288919 0.119021 -0.692180
v 0.293000 0.120000 -0.686000
v 0.362000 -0.120000 -0.686000
v 0.366016 -0.119021 -0.692180
v 0.369639 -0.116180 -0.697756
v 0.372514 -0.111756 -0.702180
v 0.374360 -0.106180 -0.705021
v 0.374996 -0.100000 -0.706000
v 0.374996 0.100000 -0.706000
v 0.374360 0.106180 -0.705021
v 0.372514 0.111756 -0.702180
v 0.369639 0.116180 -0.697756
v 0.366016 0.119021 -0.692180
v 0.362000 0.120000 -0.686000
v 0.667000 -0.120000 0.000000
v 0.676512 -0.119021 0.006180
v 0.685092 -0.116180 0.011756
v 0.691901 -0.111756 0.016180
v 0.696273 -0.106180 0.019021
v 0.697780 -0.100000 0.020000
v 0.697780 0.100000 0.020000
v 0.696273 0.106180 0.019021
v 0.691901 0.111756 0.016180
v 0.685092 0.116180 0.011756
v 0.676512 0.119021 0.006180
v 0.667000 0.120000 0.000000
v 0.436000 -0.120000 -0.289000
v 0.426482 -0.119021 -0.295180
v 0.417896 -0.116180 -0.300756
v 0.411082 -0.111756 -0.305180
v 0.406707 -0.106180 -0.308021
v 0.405199 -0.100000 -0.309000
v 0.405199 0.100000 -0.309000
v 0.406707 0.106180 -0.308021
v 0.411082 0.111756 -0.305180
v 0.417896 0.116180 -0.300756
v 0.426482 0.119021 -0.295180
v 0.436000 0.120000 -0.289000
v 0.326000 -0.120000 -0.536000
v 0.326214 -0.119021 -0.520327
v 0.326408 -0.116180 -0.506188
v 0.326561 -0.111756 -0.494968
v 0.326660 -0.106180 -0.487764
v 0.326694 -0.100000 -0.485281
v 0.326694 0.100000 -0.485281
v 0.326660 0.106180 -0.487764
v 0.326561 0.111756 -0.494968
v 0.326408 0.116180 -0.506188
v 0.326214 0.119021 -0.520327
v 0.326000 0.120000 -0.536000
v 0.224000 -0.120000 -0.289000
v 0.233239 -0.119021 -0.295180
v 0.241573 -0.116180 -0.300756
v 0.248187 -0.111756 -0.305180
v 0.252434 -0.106180 -0.308021
v 0.253897 -0.100000 -0.309000
v 0.253897 0.100000 -0.309000
v 0.252434 0.106180 -0.308021
v 0.248187 0.111756 -0.305180
v 0.241573 0.116180 -0.300756
v 0.233239 0.119021 -0.295180
v 0.224000 0.120000 -0.289000
vn -0.0000 1.0000 -0.0000
vn -0.0000 -1.0000 -0.0000
vn -0.1679 -0.9508 0.2603
vn -0.1183 -0.9759 0.1834
vn -0.0715 -0.9913 0.1109
vn -0.3036 -0.8284 0.4708
vn -0.2622 -0.8752 0.4066
vn -0.4237 -0.6237 0.6569
vn -0.3972 -0.6805 0.6158
vn -0.5100 -0.3384 0.7908
vn -0.5013 -0.3801 0.7773
vn -0.5398 -0.0902 0.8369
vn -0.5395 -0.0961 0.8365
vn -0.5398 0.0902 0.8369
vn -0.5395 0.0961 0.8365
vn -0.5100 0.3384 0.7908
vn -0.5013 0.3801 0.7773
vn -0.4237 0.6237 0.6569
vn -0.3972 0.6805 0.6158
vn -0.3036 0.8284 0.4708
vn -0.2622 0.8752 0.4066
vn -0.1679 0.9508 0.2603
vn -0.1183 0.9759 0.1834
vn -0.0715 0.9913 0.1109
vn 0.1190 -0.9764 0.1803
vn 0.0722 -0.9914 0.1094
vn 0.2647 -0.8769 0.4011
vn 0.4020 -0.6835 0.6093
vn 0.5088 -0.3827 0.7711
vn 0.5482 -0.0968 0.8308
vn 0.5482 0.0968 0.8308
vn 0.5088 0.3827 0.7711
vn 0.4020 0.6835 0.6093
vn 0.2647 0.8769 0.4011
vn 0.1190 0.9764 0.1803
vn 0.0722 0.9914 0.1094
vn 0.1700 -0.9512 0.2577
vn 0.3075 -0.8296 0.4660
vn 0.4296 -0.6256 0.6512
vn 0.5179 -0.3400 0.7850
vn 0.5485 -0.0907 0.8312
vn 0.5485 0.0907 0.8312
vn 0.5179 0.3400 0.7850
vn 0.4296 0.6256 0.6512
vn 0.3075 0.8296 0.4660
vn 0.1700 0.9512 0.2577
vn -0.1953 -0.9722 0.1290
vn -0.0726 -0.9962 0.0479
vn -0.3630 -0.9005 0.2396
vn -0.5568 -0.7449 0.3676
vn -0.7478 -0.4439 0.4937
vn -0.8274 -0.1302 0.5463
vn -0.8274 0.1302 0.5463
vn -0.7478 0.4439 0.4937
vn -0.5568 0.7449 0.3676
vn -0.3630 0.9005 0.2396
vn -0.1953 0.9722 0.1290
vn -0.0726 0.9962 0.0479
vn -0.1701 -0.9512 -0.2576
vn -0.0722 -0.9914 -0.1093
vn -0.3076 -0.8296 -0.4659
vn -0.4298 -0.6257 -0.6510
vn -0.5182 -0.3400 -0.7848
vn -0.5487 -0.0907 -0.8311
vn -0.5487 0.0907 -0.8311
vn -0.5182 0.3400 -0.7848
vn -0.4298 0.6257 -0.6510
vn -0.3076 0.8296 -0.4659
vn -0.1701 0.9512 -0.2576
vn -0.0722 0.9914 -0.1093
vn 0.1686 -0.9509 -0.2594
vn 0.0717 -0.9913 -0.1104
vn 0.3049 -0.8288 -0.4692
vn 0.4256 -0.6243 -0.6550
vn 0.5126 -0.3389 -0.7889
vn 0.5426 -0.0903 -0.8351
vn 0.5426 0.0903 -0.8351
vn 0.5126 0.3389 -0.7889
vn 0.4256 0.6243 -0.6550
vn 0.3049 0.8288 -0.4692
vn 0.1686 0.9509 -0.2594
vn 0.0717 0.9913 -0.1104
vn 0.1945 -0.9727 0.1264
vn 0.0721 -0.9963 0.0468
vn 0.3619 -0.9021 0.2351
vn 0.5566 -0.7479 0.3617
vn 0.7501 -0.4469 0.4874
vn 0.8312 -0.1315 0.5401
vn 0.8312 0.1315 0.5401
vn 0.7501 0.4469 0.4874
vn 0.5566 0.7479 0.3617
vn 0.3619 0.9021 0.2351
vn 0.1945 0.9727 0.1264
vn 0.0721 0.9963 0.0468
vn -0.1007 -0.9928 -0.0654
vn 0.0011 -0.9968 0.0801
vn 0.0009 -0.9981 0.0623
vn -0.0721 -0.9963 -0.0468
vn -0.2616 -0.9501 -0.1699
vn 0.0030 -0.9750 0.2220
vn -0.4580 -0.8377 -0.2974
vn 0.0057 -0.9105 0.4135
vn -0.6951 -0.5595 -0.4514
vn 0.0098 -0.6962 0.7178
vn -0.8288 -0.1529 -0.5382
vn 0.0134 -0.2146 0.9766
vn -0.8288 0.1529 -0.5382
vn 0.0134 0.2146 0.9766
vn -0.6951 0.5595 -0.4514
vn 0.0098 0.6962 0.7178
vn -0.4580 0.8377 -0.2974
vn 0.0057 0.9105 0.4135
vn -0.2616 0.9501 -0.1699
vn 0.0030 0.9750 0.2220
vn -0.1007 0.9928 -0.0654
vn 0.0011 0.9968 0.0801
vn -0.0721 0.9963 -0.0468
vn 0.0009 0.9981 0.0623
vn 0.1026 -0.9924 -0.0686
vn 0.0729 -0.9961 -0.0488
vn 0.2649 -0.9479 -0.1772
vn 0.4613 -0.8318 -0.3086
vn 0.6939 -0.5505 -0.4642
vn 0.8218 -0.1496 -0.5498
vn 0.8218 0.1496 -0.5498
vn 0.6939 0.5505 -0.4642
vn 0.4614 0.8318 -0.3086
vn 0.2649 0.9479 -0.1772
vn 0.1026 0.9924 -0.0686
vn 0.0729 0.9961 -0.0488
vt 0.142225 0.011489
vt 0.570308 0.994534
vt 0.424171 0.994534
vt 0.499178 0.695456
vt 0.857030 0.007431
vt 0.401781 0.348644
vt 0.593673 0.348644
vt 0.362314 0.200017
vt 0.635965 0.200017
vt 0.305771 0.009460
vt 0.689426 0.009460
vt 0.400000 0.000000
vt 0.500000 0.000000
vt 0.600000 0.000000
vt 0.900000 0.000000
vt 0.700000 0.000000
vt 1.000000 0.000000
vt 0.800000 0.000000
vt 0.200000 0.000000
vt 0.100000 0.000000
vt 0.300000 0.000000
vt 0.000000 0.000000
vt 0.000000 0.090909
vt 0.125000 0.090909
vt 0.125000 0.000000
vt 0.000000 0.181818
vt 0.125000 0.181818
vt 0.000000 0.272727
vt 0.125000 0.272727
vt 0.000000 0.363636
vt 0.125000 0.363636
vt 0.000000 0.454545
vt 0.125000 0.454545
vt 0.000000 0.545455
vt 0.125000 0.545455
vt 0.000000 0.636364
vt 0.125000 0.636364
vt 0.616608 0.205708
vt 0.584615 0.324595
vt 0.582088 0.320672
vt 0.614082 0.201784
vt 0.620544 0.211819
vt 0.588551 0.330706
vt 0.625504 0.219519
vt 0.593510 0.338407
vt 0.631001 0.228055
vt 0.599008 0.346943
vt 0.250000 0.090909
vt 0.250000 0.000000
vt 0.250000 0.181818
vt 0.250000 0.272727
vt 0.250000 0.363636
vt 0.250000 0.454545
vt 0.250000 0.545455
vt 0.250000 0.636364
vt 0.413100 0.323365
vt 0.415685 0.319441
vt 0.409074 0.329476
vt 0.404000 0.337176
vt 0.398376 0.345712
vt 0.375000 0.090909
vt 0.375000 0.000000
vt 0.375000 0.181818
vt 0.375000 0.272727
vt 0.375000 0.363636
vt 0.375000 0.454545
vt 0.375000 0.545455
vt 0.375000 0.636364
vt 0.378159 0.206938
vt 0.380745 0.203015
vt 0.374133 0.213049
vt 0.369059 0.220749
vt 0.363435 0.229285
vt 0.500000 0.090909
vt 0.500000 0.181818
vt 0.500000 0.272727
vt 0.500000 0.363636
vt 0.500000 0.454545
vt 0.500000 0.545455
vt 0.500000 0.636364
vt 0.287693 0.205708
vt 0.281760 0.201784
vt 0.296935 0.211819
vt 0.308581 0.219519
vt 0.321490 0.228055
vt 0.625000 0.090909
vt 0.625000 0.000000
vt 0.625000 0.181818
vt 0.625000 0.272727
vt 0.625000 0.363636
vt 0.625000 0.454545
vt 0.625000 0.545455
vt 0.280215 0.200463
vt 0.452803 0.799553
vt 0.452714 0.799688
vt 0.280010 0.200327
vt 0.452466 0.794292
vt 0.449879 0.798216
vt 0.456495 0.788181
vt 0.461573 0.780481
vt 0.467200 0.771945
vt 0.750000 0.090909
vt 0.750000 0.000000
vt 0.750000 0.181818
vt 0.750000 0.272727
vt 0.750000 0.363636
vt 0.750000 0.454545
vt 0.750000 0.545455
vt 0.544541 0.800783
vt 0.544630 0.800918
vt 0.539950 0.794292
vt 0.542496 0.798216
vt 0.535985 0.788181
vt 0.530989 0.780481
vt 0.525451 0.771945
vt 0.875000 0.090909
vt 0.875000 0.000000
vt 0.875000 0.181818
vt 0.875000 0.272727
vt 0.875000 0.363636
vt 0.875000 0.454545
vt 0.875000 0.545455
vt 0.719498 0.199232
vt 0.719706 0.199097
vt 0.710981 0.203247
vt 0.717010 0.199323
vt 0.701589 0.209358
vt 0.689755 0.217058
vt 0.676637 0.225594
vt 1.000000 0.090909
vt 1.000000 0.181818
vt 1.000000 0.272727
vt 1.000000 0.363636
vt 1.000000 0.454545
vt 1.000000 0.545455
vt 0.613174 0.199847
vt 0.613086 0.199712
vt 0.333333 0.090909
vt 0.333333 0.000000
vt 0.333333 0.181818
vt 0.333333 0.272727
vt 0.333333 0.363636
vt 0.333333 0.454545
vt 0.333333 0.545455
vt 0.333333 0.636364
vt 0.559782 0.404959
vt 0.497393 0.605247
vt 0.497453 0.600867
vt 0.557125 0.406686
vt 0.563919 0.402269
vt 0.497300 0.612069
vt 0.569132 0.398879
vt 0.497182 0.620666
vt 0.574910 0.395121
vt 0.497052 0.630195
vt 0.666667 0.090909
vt 0.666667 0.000000
vt 0.666667 0.181818
vt 0.666667 0.272727
vt 0.666667 0.363636
vt 0.666667 0.454545
vt 0.666667 0.545455
vt 0.666667 0.636364
vt 0.430124 0.406190
vt 0.432702 0.407917
vt 0.426108 0.403500
vt 0.421048 0.400110
vt 0.415439 0.396352
vt 0.442777 0.410579
vt 0.552708 0.409349
vt 0.552499 0.409484
vt 0.442979 0.410715
s 0
usemtl Texture
f 5/1/1 7/2/1 6/3/1
f 5/1/1 10/4/1 7/2/1
f 10/4/1 8/5/1 7/2/1
f 5/1/1 11/6/1 10/4/1
f 9/7/1 8/5/1 10/4/1
f 5/1/1 3/8/1 11/6/1
f 3/8/1 9/7/1 11/6/1
f 3/8/1 2/9/1 9/7/1
f 2/9/1 8/5/1 9/7/1
f 5/1/1 4/10/1 3/8/1
f 1/11/1 8/5/1 2/9/1
f 16/12/2 17/13/2 18/14/2
f 16/12/2 18/14/2 21/15/2
f 21/15/2 18/14/2 19/16/2
f 16/12/2 21/15/2 22/17/2
f 20/18/2 21/15/2 19/16/2
f 16/12/2 22/17/2 14/19/2
f 14/19/2 22/17/2 20/18/2
f 14/19/2 20/18/2 13/20/2
f 13/20/2 20/18/2 19/16/2
f 16/12/2 14/19/2 15/21/2
f 12/22/2 13/20/2 19/16/2
s 1
f 24/23/3 36/24/4 35/25/5 23/22/5
f 25/26/6 37/27/7 36/24/4 24/23/3
f 26/28/8 38/29/9 37/27/7 25/26/6
f 27/30/10 39/31/11 38/29/9 26/28/8
f 28/32/12 40/33/13 39/31/11 27/30/10
f 29/34/14 41/35/15 40/33/13 28/32/12
f 30/36/16 42/37/17 41/35/15 29/34/14
f 31/38/18 43/39/19 42/40/17 30/41/16
f 32/42/20 44/43/21 43/39/19 31/38/18
f 33/44/22 45/45/23 44/43/21 32/42/20
f 34/46/24 46/47/24 45/45/23 33/44/22
f 36/24/4 48/48/25 47/49/26 35/25/5
f 37/27/7 49/50/27 48/48/25 36/24/4
f 38/29/9 50/51/28 49/50/27 37/27/7
f 39/31/11 51/52/29 50/51/28 38/29/9
f 40/33/13 52/53/30 51/52/29 39/31/11
f 41/35/15 53/54/31 52/53/30 40/33/13
f 42/37/17 54/55/32 53/54/31 41/35/15
f 43/39/19 55/56/33 54/57/32 42/40/17
f 44/43/21 56/58/34 55/56/33 43/39/19
f 45/45/23 57/59/35 56/58/34 44/43/21
f 46/47/24 58/60/36 57/59/35 45/45/23
f 48/48/25 60/61/37 59/62/26 47/49/26
f 49/50/27 61/63/38 60/61/37 48/48/25
f 50/51/28 62/64/39 61/63/38 49/50/27
f 51/52/29 63/65/40 62/64/39 50/51/28
f 52/53/30 64/66/41 63/65/40 51/52/29
f 53/54/31 65/67/42 64/66/41 52/53/30
f 54/55/32 66/68/43 65/67/42 53/54/31
f 55/56/33 67/69/44 66/70/43 54/57/32
f 56/58/34 68/71/45 67/69/44 55/56/33
f 57/59/35 69/72/46 68/71/45 56/58/34
f 58/60/36 70/73/36 69/72/46 57/59/35
f 60/61/37 72/74/47 71/13/48 59/62/26
f 61/63/38 73/75/49 72/74/47 60/61/37
f 62/64/39 74/76/50 73/75/49 61/63/38
f 63/65/40 75/77/51 74/76/50 62/64/39
f 64/66/41 76/78/52 75/77/51 63/65/40
f 65/67/42 77/79/53 76/78/52 64/66/41
f 66/68/43 78/80/54 77/79/53 65/67/42
f 67/69/44 79/81/55 78/82/54 66/70/43
f 68/71/45 80/83/56 79/81/55 67/69/44
f 69/72/46 81/84/57 80/83/56 68/71/45
f 70/73/36 82/85/58 81/84/57 69/72/46
f 72/74/47 84/86/59 83/87/60 71/13/48
f 73/75/49 85/88/61 84/86/59 72/74/47
f 74/76/50 86/89/62 85/88/61 73/75/49
f 75/77/51 87/90/63 86/89/62 74/76/50
f 76/78/52 88/91/64 87/90/63 75/77/51
f 77/79/53 89/92/65 88/91/64 76/78/52
f 78/93/54 90/94/66 89/95/65 77/96/53
f 79/81/55 91/97/67 90/98/66 78/82/54
f 80/83/56 92/99/68 91/97/67 79/81/55
f 81/84/57 93/100/69 92/99/68 80/83/56
f 82/85/58 94/101/70 93/100/69 81/84/57
f 84/86/59 96/102/71 95/103/72 83/87/60
f 85/88/61 97/104/73 96/102/71 84/86/59
f 86/89/62 98/105/74 97/104/73 85/88/61
f 87/90/63 99/106/75 98/105/74 86/89/62
f 88/91/64 100/107/76 99/106/75 87/90/63
f 89/92/65 101/108/77 100/107/76 88/91/64
f 90/94/66 102/109/78 101/110/77 89/95/65
f 91/97/67 103/111/79 102/112/78 90/98/66
f 92/99/68 104/113/80 103/111/79 91/97/67
f 93/100/69 105/114/81 104/113/80 92/99/68
f 94/101/70 106/115/82 105/114/81 93/100/69
f 96/102/71 108/116/83 107/117/84 95/103/72
f 97/104/73 109/118/85 108/116/83 96/102/71
f 98/105/74 110/119/86 109/118/85 97/104/73
f 99/106/75 111/120/87 110/119/86 98/105/74
f 100/107/76 112/121/88 111/120/87 99/106/75
f 101/108/77 113/122/89 112/121/88 100/107/76
f 102/109/78 114/123/90 113/124/89 101/110/77
f 103/111/79 115/125/91 114/126/90 102/112/78
f 104/113/80 116/127/92 115/125/91 103/111/79
f 105/114/81 117/128/93 116/127/92 104/113/80
f 106/115/82 118/129/94 117/128/93 105/114/81
f 108/116/83 24/130/3 23/17/5 107/117/84
f 109/118/85 25/131/6 24/130/3 108/116/83
f 110/119/86 26/132/8 25/131/6 109/118/85
f 111/120/87 27/133/10 26/132/8 110/119/86
f 112/121/88 28/134/12 27/133/10 111/120/87
f 113/122/89 29/135/14 28/134/12 112/121/88
f 114/123/90 30/136/16 29/137/14 113/124/89
f 115/125/91 31/38/18 30/41/16 114/126/90
f 116/127/92 32/42/20 31/38/18 115/125/91
f 117/128/93 33/44/22 32/42/20 116/127/92
f 118/129/94 34/46/24 33/44/22 117/128/93
f 120/23/95 132/138/96 131/139/97 119/22/98
f 121/26/99 133/140/100 132/138/96 120/23/95
f 122/28/101 134/141/102 133/140/100 121/26/99
f 123/30/103 135/142/104 134/141/102 122/28/101
f 124/32/105 136/143/106 135/142/104 123/30/103
f 125/34/107 137/144/108 136/143/106 124/32/105
f 126/36/109 138/145/110 137/144/108 125/34/107
f 127/146/111 139/147/112 138/148/110 126/149/109
f 128/150/113 140/151/114 139/147/112 127/146/111
f 129/152/115 141/153/116 140/151/114 128/150/113
f 130/154/117 142/155/118 141/153/116 129/152/115
f 132/138/96 144/156/119 143/157/120 131/139/97
f 133/140/100 145/158/121 144/156/119 132/138/96
f 134/141/102 146/159/122 145/158/121 133/140/100
f 135/142/104 147/160/123 146/159/122 134/141/102
f 136/143/106 148/161/124 147/160/123 135/142/104
f 137/144/108 149/162/125 148/161/124 136/143/106
f 138/145/110 150/163/126 149/162/125 137/144/108
f 139/147/112 151/164/127 150/165/126 138/148/110
f 140/151/114 152/166/128 151/164/127 139/147/112
f 141/153/116 153/167/129 152/166/128 140/151/114
f 142/155/118 154/168/130 153/167/129 141/153/116
f 144/156/119 120/130/95 119/17/98 143/157/120
f 145/158/121 121/131/99 120/130/95 144/156/119
f 146/159/122 122/132/101 121/131/99 145/158/121
f 147/160/123 123/133/103 122/132/101 146/159/122
f 148/161/124 124/134/105 123/133/103 147/160/123
f 149/162/125 125/135/107 124/134/105 148/161/124
f 150/169/126 126/170/109 125/171/107 149/172/125
f 151/164/127 127/146/111 126/149/109 150/165/126
f 152/166/128 128/150/113 127/146/111 151/164/127
f 153/167/129 129/152/115 128/150/113 152/166/128
f 154/168/130 130/154/117 129/152/115 153/167/129
